<svg width="144" height="49" viewBox="0 0 144 49" fill="none" xmlns="http://www.w3.org/2000/svg">
<rect x="0.6" y="1.34023" width="142.8" height="46.8" rx="9.4" fill="url(#paint0_linear_2043_1003)"/>
<rect x="0.6" y="1.34023" width="142.8" height="46.8" rx="9.4" stroke="url(#paint1_linear_2043_1003)" stroke-width="1.2"/>
<path d="M29.8066 25.1016C29.8196 24.1 30.0864 23.1179 30.5822 22.2468C31.078 21.3756 31.7867 20.6437 32.6424 20.1191C32.0988 19.3449 31.3817 18.7078 30.548 18.2583C29.7142 17.8089 28.7869 17.5594 27.8396 17.5299C25.8189 17.3184 23.8598 18.7357 22.8301 18.7357C21.7804 18.7357 20.195 17.5509 18.4877 17.5859C17.3834 17.6215 16.3072 17.9417 15.3639 18.5154C14.4206 19.0891 13.6424 19.8966 13.1052 20.8594C10.7778 24.8775 12.5138 30.7827 14.7432 34.0306C15.8586 35.6211 17.1622 37.3976 18.8679 37.3346C20.537 37.2656 21.1604 36.2732 23.1752 36.2732C25.1713 36.2732 25.7562 37.3346 27.4965 37.2946C29.2876 37.2656 30.4161 35.6971 31.4923 34.0916C32.2937 32.9584 32.9104 31.7059 33.3195 30.3806C32.279 29.9417 31.391 29.2071 30.7663 28.2683C30.1416 27.3296 29.8078 26.2282 29.8066 25.1016Z" fill="white"/>
<path d="M26.5195 15.3938C27.496 14.2248 27.9772 12.7222 27.8606 11.2051C26.3687 11.3613 24.9905 12.0724 24.0007 13.1966C23.5168 13.7458 23.1462 14.3847 22.91 15.0769C22.6739 15.769 22.5768 16.5007 22.6244 17.2303C23.3707 17.2379 24.109 17.0766 24.7837 16.7585C25.4583 16.4404 26.0518 15.9738 26.5195 15.3938Z" fill="white"/>
<path d="M50.9043 33.3079H45.2082L43.8403 37.3356H41.4277L46.8229 22.434H49.3295L54.7247 37.3356H52.271L50.9043 33.3079ZM45.7982 31.4493H50.3132L48.0874 24.9126H48.0252L45.7982 31.4493Z" fill="#DADADA"/>
<path d="M66.3765 31.904C66.3765 35.2802 64.5644 37.4493 61.8298 37.4493C61.137 37.4854 60.4481 37.3263 59.8419 36.9901C59.2356 36.654 58.7366 36.1543 58.4018 35.5485H58.3501V40.9297H56.1137V26.4712H58.2784V28.2782H58.3196C58.6697 27.6752 59.1772 27.1782 59.788 26.84C60.3989 26.5018 61.0903 26.335 61.7886 26.3575C64.5538 26.3575 66.3765 28.5372 66.3765 31.904ZM64.0779 31.904C64.0779 29.7044 62.9379 28.2583 61.1987 28.2583C59.49 28.2583 58.3407 29.7348 58.3407 31.904C58.3407 34.093 59.49 35.5591 61.1987 35.5591C62.938 35.5591 64.0779 34.1235 64.0779 31.904Z" fill="#DADADA"/>
<path d="M78.3679 31.904C78.3679 35.2802 76.5558 37.4493 73.8211 37.4493C73.1284 37.4854 72.4395 37.3263 71.8332 36.9901C71.227 36.654 70.7279 36.1543 70.3932 35.5485H70.3414V40.9297H68.1051V26.4712H70.2698V28.2782H70.3109C70.661 27.6752 71.1685 27.1782 71.7794 26.84C72.3902 26.5018 73.0816 26.335 73.78 26.3575C76.5452 26.3575 78.3679 28.5372 78.3679 31.904ZM76.0692 31.904C76.0692 29.7044 74.9293 28.2583 73.1901 28.2583C71.4814 28.2583 70.3321 29.7348 70.3321 31.904C70.3321 34.093 71.4814 35.5591 73.1901 35.5591C74.9293 35.5591 76.0692 34.1235 76.0692 31.904Z" fill="#DADADA"/>
<path d="M86.2932 33.1837C86.4589 34.6614 87.8985 35.6317 89.8657 35.6317C91.7506 35.6317 93.1068 34.6613 93.1068 33.3289C93.1068 32.1723 92.2889 31.4797 90.3522 31.0051L88.4155 30.5399C85.6715 29.8789 84.3976 28.5992 84.3976 26.5227C84.3976 23.9516 86.6446 22.1855 89.8351 22.1855C92.9928 22.1855 95.1574 23.9516 95.2303 26.5227H92.9728C92.8376 25.0355 91.6049 24.1379 89.8034 24.1379C88.0018 24.1379 86.7691 25.0461 86.7691 26.368C86.7691 27.4215 87.5565 28.0414 89.4825 28.516L91.1289 28.9191C94.1949 29.6422 95.4688 30.8703 95.4688 33.05C95.4688 35.8379 93.2419 37.5839 89.6999 37.5839C86.386 37.5839 84.1485 35.8789 84.0039 33.1835L86.2932 33.1837Z" fill="#DADADA"/>
<path d="M100.295 23.9001V26.4712H102.367V28.2372H100.295V34.2266C100.295 35.1571 100.71 35.5907 101.621 35.5907C101.867 35.5864 102.112 35.5692 102.356 35.5391V37.2946C101.947 37.3709 101.531 37.4054 101.114 37.3977C98.9086 37.3977 98.0483 36.5715 98.0483 34.4645V28.2372H96.4642V26.4712H98.0483V23.9001H100.295Z" fill="#DADADA"/>
<path d="M103.567 31.904C103.567 28.4856 105.586 26.3376 108.734 26.3376C111.893 26.3376 113.903 28.4856 113.903 31.904C113.903 35.3317 111.904 37.4704 108.734 37.4704C105.566 37.4704 103.567 35.3317 103.567 31.904ZM111.624 31.904C111.624 29.5591 110.546 28.1751 108.734 28.1751C106.922 28.1751 105.846 29.5696 105.846 31.904C105.846 34.2583 106.922 35.6317 108.734 35.6317C110.546 35.6317 111.624 34.2583 111.624 31.904Z" fill="#DADADA"/>
<path d="M115.746 26.4712H117.879V28.3204H117.931C118.075 27.7428 118.415 27.2324 118.892 26.875C119.369 26.5175 119.955 26.3348 120.552 26.3575C120.809 26.3566 121.066 26.3845 121.318 26.4407V28.5266C120.992 28.4275 120.653 28.382 120.313 28.3918C119.988 28.3787 119.664 28.4358 119.364 28.5593C119.063 28.6828 118.793 28.8696 118.571 29.1071C118.35 29.3446 118.183 29.627 118.081 29.935C117.979 30.243 117.946 30.5693 117.983 30.8914V37.3356H115.746L115.746 26.4712Z" fill="#DADADA"/>
<path d="M131.629 34.1446C131.328 36.1169 129.402 37.4704 126.937 37.4704C123.768 37.4704 121.801 35.3528 121.801 31.9555C121.801 28.5477 123.779 26.3376 126.843 26.3376C129.858 26.3376 131.753 28.4024 131.753 31.6965V32.4606H124.058V32.5954C124.023 32.9952 124.073 33.398 124.206 33.777C124.338 34.156 124.55 34.5026 124.827 34.7936C125.104 35.0847 125.441 35.3136 125.813 35.4652C126.186 35.6167 126.587 35.6875 126.989 35.6727C127.518 35.7221 128.048 35.6 128.501 35.3247C128.955 35.0494 129.307 34.6355 129.505 34.1446L131.629 34.1446ZM124.069 30.902H129.516C129.536 30.5425 129.481 30.1827 129.355 29.8453C129.229 29.5078 129.035 29.2 128.784 28.9411C128.533 28.6821 128.231 28.4777 127.897 28.3407C127.563 28.2036 127.204 28.1369 126.843 28.1446C126.479 28.1424 126.118 28.2122 125.781 28.3499C125.444 28.4876 125.138 28.6905 124.88 28.9468C124.622 29.2032 124.418 29.5079 124.278 29.8435C124.139 30.1791 124.068 30.5388 124.069 30.902Z" fill="#DADADA"/>
<path d="M45.5194 11.2171C45.9882 11.1835 46.4587 11.2541 46.8968 11.4239C47.335 11.5936 47.7299 11.8582 48.0531 12.1985C48.3764 12.5389 48.6198 12.9465 48.7659 13.392C48.912 13.8375 48.9571 14.3098 48.898 14.7749C48.898 17.0624 47.6582 18.3773 45.5194 18.3773H42.9258V11.2171H45.5194ZM44.041 17.3647H45.3948C45.7298 17.3846 46.0651 17.3299 46.3762 17.2043C46.6873 17.0788 46.9665 16.8856 47.1933 16.639C47.4201 16.3923 47.5889 16.0983 47.6874 15.7783C47.7859 15.4584 47.8117 15.1206 47.7627 14.7895C47.8081 14.4597 47.7798 14.1239 47.6798 13.8063C47.5797 13.4887 47.4105 13.1971 47.1842 12.9524C46.9579 12.7077 46.6801 12.5159 46.3707 12.3908C46.0614 12.2658 45.7281 12.2105 45.3948 12.2289H44.041V17.3647Z" fill="#DADADA"/>
<path d="M50.1577 15.6731C50.1237 15.318 50.1644 14.9597 50.2773 14.6212C50.3903 14.2827 50.5729 13.9715 50.8135 13.7075C51.0541 13.4435 51.3474 13.2326 51.6745 13.0883C52.0016 12.944 52.3554 12.8694 52.7131 12.8694C53.0709 12.8694 53.4246 12.944 53.7518 13.0883C54.0789 13.2326 54.3722 13.4435 54.6128 13.7075C54.8534 13.9715 55.036 14.2827 55.1489 14.6212C55.2619 14.9597 55.3026 15.318 55.2685 15.6731C55.3032 16.0285 55.263 16.3873 55.1504 16.7263C55.0377 17.0654 54.8552 17.3772 54.6146 17.6416C54.3739 17.9061 54.0804 18.1175 53.7529 18.2621C53.4255 18.4068 53.0713 18.4815 52.7131 18.4815C52.355 18.4815 52.0008 18.4068 51.6733 18.2621C51.3459 18.1175 51.0524 17.9061 50.8117 17.6416C50.571 17.3772 50.3885 17.0654 50.2759 16.7263C50.1633 16.3873 50.123 16.0285 50.1577 15.6731ZM54.1686 15.6731C54.1686 14.5018 53.6409 13.8168 52.7149 13.8168C51.7853 13.8168 51.2624 14.5018 51.2624 15.6731C51.2624 16.8537 51.7854 17.5334 52.7149 17.5334C53.6409 17.5334 54.1686 16.849 54.1686 15.6731Z" fill="#DADADA"/>
<path d="M62.0622 18.3772H60.9528L59.8329 14.3975H59.7483L58.633 18.3772H57.5343L56.0406 12.9736H57.1253L58.096 17.0968H58.1759L59.29 12.9736H60.3159L61.4299 17.0968H61.5145L62.4805 12.9736H63.5499L62.0622 18.3772Z" fill="#DADADA"/>
<path d="M64.8062 12.9736H65.8356V13.832H65.9155C66.0511 13.5237 66.2797 13.2653 66.5696 13.0927C66.8594 12.9202 67.1961 12.8421 67.5326 12.8693C67.7962 12.8496 68.0609 12.8892 68.3072 12.9853C68.5534 13.0814 68.7747 13.2316 68.9549 13.4246C69.135 13.6176 69.2692 13.8485 69.3477 14.1003C69.4262 14.3521 69.4468 14.6183 69.4081 14.8791V18.3771H68.3387V15.1469C68.3387 14.2785 67.9603 13.8467 67.1694 13.8467C66.9904 13.8384 66.8117 13.8688 66.6456 13.9358C66.4795 14.0027 66.3298 14.1048 66.2069 14.2348C66.084 14.3649 65.9908 14.5199 65.9336 14.6893C65.8764 14.8586 65.8566 15.0383 65.8756 15.216V18.3772H64.8062L64.8062 12.9736Z" fill="#DADADA"/>
<path d="M71.1121 10.8643H72.1815V18.3771H71.1121V10.8643Z" fill="#DADADA"/>
<path d="M73.6681 15.6731C73.634 15.3179 73.6748 14.9596 73.7878 14.6211C73.9007 14.2826 74.0834 13.9714 74.324 13.7074C74.5646 13.4435 74.8579 13.2325 75.1851 13.0882C75.5122 12.9439 75.866 12.8693 76.2238 12.8693C76.5815 12.8693 76.9353 12.9439 77.2625 13.0882C77.5896 13.2325 77.8829 13.4435 78.1236 13.7074C78.3642 13.9714 78.5468 14.2826 78.6598 14.6211C78.7727 14.9596 78.8135 15.3179 78.7795 15.6731C78.8141 16.0285 78.7738 16.3873 78.6612 16.7264C78.5485 17.0654 78.366 17.3772 78.1253 17.6416C77.8846 17.9061 77.5911 18.1175 77.2636 18.2621C76.9361 18.4068 76.5819 18.4815 76.2238 18.4815C75.8656 18.4815 75.5114 18.4068 75.1839 18.2621C74.8565 18.1175 74.5629 17.9061 74.3223 17.6416C74.0816 17.3772 73.899 17.0654 73.7864 16.7264C73.6737 16.3873 73.6334 16.0285 73.6681 15.6731ZM77.6789 15.6731C77.6789 14.5018 77.1513 13.8168 76.2252 13.8168C75.2957 13.8168 74.7728 14.5018 74.7728 15.6731C74.7728 16.8537 75.2957 17.5334 76.2252 17.5334C77.1513 17.5334 77.6789 16.849 77.6789 15.6731Z" fill="#DADADA"/>
<path d="M79.9053 16.849C79.9053 15.8764 80.6315 15.3156 81.9207 15.236L83.3885 15.1516V14.6852C83.3885 14.1145 83.0101 13.7922 82.2791 13.7922C81.6821 13.7922 81.2685 14.0108 81.1498 14.3928H80.1145C80.2238 13.4647 81.0993 12.8694 82.3285 12.8694C83.687 12.8694 84.4532 13.5438 84.4532 14.6852V18.3772H83.4237V17.6178H83.3391C83.1674 17.8902 82.9262 18.1122 82.6403 18.2613C82.3543 18.4104 82.0338 18.4811 81.7115 18.4662C81.484 18.4898 81.2541 18.4656 81.0366 18.3952C80.8191 18.3247 80.6188 18.2096 80.4486 18.0572C80.2784 17.9049 80.1421 17.7186 80.0486 17.5105C79.955 17.3024 79.9062 17.0771 79.9053 16.849ZM83.3885 16.3873V15.9356L82.0652 16.0199C81.319 16.0697 80.9805 16.3229 80.9805 16.7992C80.9805 17.2856 81.4036 17.5686 81.9854 17.5686C82.1558 17.5858 82.328 17.5686 82.4917 17.5181C82.6553 17.4676 82.8071 17.3848 82.938 17.2746C83.0689 17.1643 83.1763 17.029 83.2537 16.8766C83.331 16.7242 83.3769 16.5578 83.3885 16.3873Z" fill="#DADADA"/>
<path d="M85.8587 15.6731C85.8587 13.9656 86.7389 12.884 88.1079 12.884C88.4466 12.8684 88.7827 12.9493 89.0769 13.1172C89.3712 13.2851 89.6114 13.533 89.7696 13.832H89.8495V10.8643H90.9189V18.3771H89.8942V17.5234H89.8096C89.6392 17.8204 89.3905 18.0653 89.0906 18.2314C88.7906 18.3976 88.4508 18.4788 88.1079 18.4662C86.7295 18.4663 85.8587 17.3846 85.8587 15.6731ZM86.9633 15.6731C86.9633 16.8192 87.5051 17.5088 88.4112 17.5088C89.3125 17.5088 89.8695 16.8092 89.8695 15.6778C89.8695 14.5516 89.3066 13.842 88.4112 13.842C87.5109 13.842 86.9633 14.5363 86.9633 15.6731Z" fill="#DADADA"/>
<path d="M95.3434 15.6731C95.3093 15.318 95.3501 14.9597 95.463 14.6212C95.5759 14.2827 95.7586 13.9715 95.9992 13.7075C96.2398 13.4435 96.533 13.2326 96.8602 13.0883C97.1873 12.944 97.5411 12.8694 97.8988 12.8694C98.2565 12.8694 98.6103 12.944 98.9374 13.0883C99.2646 13.2326 99.5579 13.4435 99.7985 13.7075C100.039 13.9715 100.222 14.2827 100.335 14.6212C100.448 14.9597 100.488 15.318 100.454 15.6731C100.489 16.0285 100.449 16.3873 100.336 16.7263C100.223 17.0654 100.041 17.3772 99.8002 17.6416C99.5596 17.9061 99.2661 18.1175 98.9386 18.2621C98.6111 18.4068 98.257 18.4815 97.8988 18.4815C97.5407 18.4815 97.1865 18.4068 96.859 18.2621C96.5315 18.1175 96.238 17.9061 95.9974 17.6416C95.7567 17.3772 95.5742 17.0654 95.4616 16.7263C95.3489 16.3873 95.3087 16.0285 95.3434 15.6731ZM99.3542 15.6731C99.3542 14.5018 98.8266 13.8168 97.9006 13.8168C96.971 13.8168 96.4481 14.5018 96.4481 15.6731C96.4481 16.8537 96.9711 17.5334 97.9006 17.5334C98.8266 17.5334 99.3542 16.849 99.3542 15.6731Z" fill="#DADADA"/>
<path d="M101.889 12.9736H102.919V13.832H102.998C103.134 13.5237 103.363 13.2653 103.653 13.0927C103.942 12.9202 104.279 12.8421 104.615 12.8693C104.879 12.8496 105.144 12.8892 105.39 12.9853C105.636 13.0814 105.858 13.2316 106.038 13.4246C106.218 13.6176 106.352 13.8485 106.431 14.1003C106.509 14.3521 106.53 14.6183 106.491 14.8791V18.3771H105.422V15.1469C105.422 14.2785 105.043 13.8467 104.252 13.8467C104.073 13.8384 103.895 13.8688 103.728 13.9358C103.562 14.0027 103.413 14.1048 103.29 14.2348C103.167 14.3649 103.074 14.5199 103.017 14.6893C102.959 14.8586 102.94 15.0383 102.958 15.216V18.3772H101.889V12.9736Z" fill="#DADADA"/>
<path d="M112.534 11.6283V12.9983H113.708V13.8965H112.534V16.675C112.534 17.241 112.768 17.4889 113.3 17.4889C113.436 17.4884 113.572 17.4802 113.708 17.4643V18.3525C113.516 18.3868 113.321 18.405 113.126 18.407C111.937 18.407 111.463 17.9898 111.463 16.9481V13.8965H110.603V12.9982H111.463V11.6283H112.534Z" fill="#DADADA"/>
<path d="M115.168 10.8643H116.228V13.842H116.313C116.455 13.5308 116.69 13.2709 116.986 13.0977C117.281 12.9245 117.623 12.8464 117.965 12.874C118.228 12.8598 118.49 12.9035 118.733 13.0019C118.977 13.1004 119.195 13.2512 119.373 13.4436C119.552 13.636 119.685 13.8652 119.764 14.115C119.844 14.3648 119.866 14.6289 119.831 14.8885V18.3772H118.761V15.1516C118.761 14.2885 118.358 13.8514 117.602 13.8514C117.418 13.8363 117.234 13.8615 117.061 13.9252C116.888 13.9889 116.731 14.0894 116.601 14.2199C116.471 14.3504 116.371 14.5076 116.308 14.6806C116.246 14.8536 116.222 15.0381 116.238 15.2213V18.3771H115.168L115.168 10.8643Z" fill="#DADADA"/>
<path d="M126.067 16.9182C125.922 17.412 125.607 17.8392 125.178 18.125C124.748 18.4108 124.232 18.5369 123.719 18.4815C123.362 18.4908 123.007 18.4227 122.679 18.2816C122.351 18.1406 122.058 17.9301 121.82 17.6647C121.582 17.3994 121.404 17.0855 121.3 16.7449C121.196 16.4043 121.167 16.0452 121.216 15.6924C121.168 15.3385 121.198 14.9786 121.302 14.637C121.406 14.2954 121.582 13.9801 121.819 13.7124C122.056 13.4447 122.348 13.2309 122.675 13.0855C123.002 12.94 123.356 12.8663 123.714 12.8693C125.222 12.8693 126.132 13.8965 126.132 15.5933V15.9655H122.305V16.0252C122.288 16.2235 122.313 16.4231 122.379 16.6112C122.444 16.7993 122.548 16.9718 122.683 17.1175C122.819 17.2633 122.984 17.3791 123.168 17.4576C123.351 17.536 123.549 17.5754 123.748 17.5732C124.004 17.6038 124.263 17.5579 124.493 17.4413C124.722 17.3246 124.912 17.1425 125.037 16.9181L126.067 16.9182ZM122.305 15.1768H125.042C125.056 14.9954 125.031 14.8133 124.97 14.642C124.908 14.4707 124.812 14.3142 124.686 14.1823C124.56 14.0505 124.409 13.9463 124.24 13.8765C124.072 13.8067 123.891 13.7728 123.708 13.777C123.523 13.7747 123.34 13.8093 123.169 13.8788C122.997 13.9483 122.842 14.0514 122.711 14.1818C122.58 14.3123 122.477 14.4675 122.407 14.6384C122.337 14.8093 122.303 14.9923 122.305 15.1768Z" fill="#DADADA"/>
<defs>
<linearGradient id="paint0_linear_2043_1003" x1="72" y1="0.740234" x2="72" y2="48.7402" gradientUnits="userSpaceOnUse">
<stop stop-color="#2E2E2E"/>
<stop offset="1" stop-color="#141414"/>
</linearGradient>
<linearGradient id="paint1_linear_2043_1003" x1="72" y1="0.740234" x2="72" y2="48.7402" gradientUnits="userSpaceOnUse">
<stop stop-color="#333333"/>
<stop offset="1" stop-color="#212121"/>
</linearGradient>
</defs>
</svg>
