<svg xmlns="http://www.w3.org/2000/svg" width="80" height="80" viewBox="0 0 80 80" fill="none">
  <g clip-path="url(#clip0_226_3695)">
    <path d="M47.9885 25.2842H31.3477V55.8257H47.9885V25.2842Z" fill="#FF5F00"/>
    <path fill-rule="evenodd" clip-rule="evenodd" d="M32.4053 40.5553C32.4053 34.3684 35.2428 28.8198 39.6676 25.2845C36.4453 22.6821 32.3572 21.1108 27.9324 21.1108C17.3996 21.1108 8.88672 29.802 8.88672 40.5553C8.88672 51.2595 17.3996 59.9997 27.9324 59.9997C32.3572 59.9997 36.4453 58.4285 39.6676 55.8261C35.2428 52.2416 32.4053 46.7422 32.4053 40.5553Z" fill="#EB001B"/>
    <path fill-rule="evenodd" clip-rule="evenodd" d="M70.4567 40.5553C70.4567 51.2595 61.9439 59.9997 51.411 59.9997C46.9862 59.9997 42.8982 58.4285 39.6758 55.8261C44.1006 52.2907 46.9381 46.7422 46.9381 40.5553C46.9381 34.3684 44.1006 28.8198 39.6758 25.2845C42.8982 22.6821 46.9862 21.1108 51.411 21.1108C61.9439 21.1108 70.4567 29.802 70.4567 40.5553ZM68.6303 52.5858V51.9475H68.8708V51.8002H68.2456V51.9475H68.486V52.5858H68.6303ZM69.8803 51.8435V52.5801H69.6879V51.9908L69.4956 52.4818H69.3512L69.1589 51.9908V52.5801H69.0146V51.8435H69.207L69.4474 52.3836L69.6879 51.8435H69.8803Z" fill="#F79E1B"/>
  </g>
  <defs>
    <clipPath id="clip0_226_3695">
      <rect width="80" height="80" fill="white"/>
    </clipPath>
  </defs>
</svg>