<svg width="48" height="48" viewBox="0 0 48 48" fill="none" xmlns="http://www.w3.org/2000/svg">
                            <path d="M32.9578 16.4385H31.714L37.0843 37.1088H11.1872L16.2636 16.4385H15.0498L7.92188 39.4631H40.0863L32.9578 16.4385Z" fill="#00BFEF" />
                            <path d="M39.4125 8.53662H8.59128C5.84046 8.53662 3.60156 10.7755 3.60156 13.5257V22.4679C3.60156 25.2194 5.84046 27.4583 8.59128 27.4583H10.0939L11.0858 24.6067H8.59128C7.4119 24.6067 6.4531 23.6466 6.4531 22.4679V13.5257C6.4531 12.3463 7.41254 11.3875 8.59128 11.3875H39.4125C40.5919 11.3875 41.5507 12.3463 41.5507 13.5257V22.4679C41.5507 23.6473 40.5919 24.6067 39.4125 24.6067H36.916L37.9086 27.4583H39.4125C42.1627 27.4583 44.4016 25.2194 44.4016 22.4679V13.5257C44.4016 10.7755 42.1627 8.53662 39.4125 8.53662Z" fill="#00BFEF" />
                            <path d="M30.2406 16.4385H17.7291L13.0039 35.6833H35.2399L30.2406 16.4385ZM24.0027 33.4973C22.9967 33.4973 22.1826 32.9657 22.1826 32.3084C22.1826 31.6524 22.9967 31.1207 24.0027 31.1207C25.0074 31.1207 25.8215 31.6524 25.8215 32.3084C25.8221 32.9657 25.0074 33.4973 24.0027 33.4973ZM29.8275 25.4145L27.4528 24.9784C27.5759 24.6087 27.8462 23.9897 27.602 23.108C27.4038 22.3908 26.8836 22.1715 26.4252 22.1715C25.8833 22.1715 25.5958 22.5374 25.1687 23.5115C24.5229 25.1104 23.4423 25.8512 21.5917 25.8499C19.7614 25.8486 18.4724 24.8885 18.5502 23.3758H16.7416L17.2063 22.2837L18.7739 22.285C19.0302 21.6226 19.4835 21.0336 19.9023 20.7136L21.5917 20.9654C21.1856 21.3351 20.7597 21.8917 20.6354 22.5591C20.5194 23.1992 20.8299 23.6696 21.5528 23.6696C22.2387 23.6696 22.6894 23.2827 23.144 22.4533C23.7177 21.4001 24.44 20.7626 25.8731 20.7626C27.1755 20.7626 28.3957 21.3007 29.1314 22.3392H30.7079L31.2632 23.4414L29.693 23.4401C29.9818 24.2938 29.9595 24.9211 29.8275 25.4145Z" fill="#00BFEF" />
                        </svg>